<svg width="1200" height="675" viewBox="0 0 1200 675" fill="none" xmlns="http://www.w3.org/2000/svg">
  <rect width="1200" height="675" rx="36" fill="#EEF5FF"/>
  <rect x="56" y="56" width="1088" height="563" rx="28" fill="#FFFFFF" stroke="#C7DCF5" stroke-width="2"/>
  <text x="96" y="118" fill="#4F7FC0" font-family="Inter, Arial, sans-serif" font-size="20" font-weight="800" letter-spacing="5">FINANCE RECONCILIATION</text>
  <text x="96" y="176" fill="#22324A" font-family="Inter, Arial, sans-serif" font-size="56" font-weight="900">Auto RK Branch</text>
  <text x="96" y="218" fill="#536980" font-family="Inter, Arial, sans-serif" font-size="23" font-weight="600">Head office and branch balance matching workflow</text>

  <rect x="96" y="286" width="300" height="236" rx="22" fill="#F8FBFF" stroke="#C7DCF5" stroke-width="2"/>
  <text x="126" y="334" fill="#22324A" font-family="Inter, Arial, sans-serif" font-size="28" font-weight="900">Input</text>
  <text x="126" y="370" fill="#4F7FC0" font-family="Inter, Arial, sans-serif" font-size="20" font-weight="800">Head Office Data</text>
  <rect x="126" y="404" width="224" height="18" rx="9" fill="#D8E8FB"/>
  <rect x="126" y="440" width="184" height="18" rx="9" fill="#E8F2FF"/>
  <rect x="126" y="476" width="238" height="18" rx="9" fill="#E8F2FF"/>

  <rect x="450" y="286" width="300" height="236" rx="22" fill="#24466E"/>
  <text x="480" y="334" fill="#FFFFFF" font-family="Inter, Arial, sans-serif" font-size="28" font-weight="900">Process</text>
  <text x="480" y="370" fill="#CFE0F8" font-family="Inter, Arial, sans-serif" font-size="20" font-weight="800">Transaction Matching</text>
  <rect x="480" y="404" width="224" height="18" rx="9" fill="#7FB2F0"/>
  <rect x="480" y="440" width="184" height="18" rx="9" fill="#CFE0F8"/>
  <rect x="480" y="476" width="238" height="18" rx="9" fill="#CFE0F8"/>

  <rect x="804" y="286" width="300" height="236" rx="22" fill="#F8FBFF" stroke="#C7DCF5" stroke-width="2"/>
  <text x="834" y="334" fill="#22324A" font-family="Inter, Arial, sans-serif" font-size="28" font-weight="900">Output</text>
  <text x="834" y="370" fill="#4F7FC0" font-family="Inter, Arial, sans-serif" font-size="20" font-weight="800">Branch Excel Sheets</text>
  <rect x="834" y="404" width="224" height="18" rx="9" fill="#D8E8FB"/>
  <rect x="834" y="440" width="184" height="18" rx="9" fill="#E8F2FF"/>
  <rect x="834" y="476" width="238" height="18" rx="9" fill="#E8F2FF"/>

  <rect x="420" y="360" width="6" height="88" rx="3" fill="#C7DCF5"/>
  <rect x="774" y="360" width="6" height="88" rx="3" fill="#C7DCF5"/>
  <rect x="96" y="552" width="244" height="48" rx="24" fill="#E8F2FF" stroke="#C7DCF5"/>
  <text x="126" y="583" fill="#24466E" font-family="Inter, Arial, sans-serif" font-size="18" font-weight="900">Affiliate Balance</text>
  <rect x="362" y="552" width="228" height="48" rx="24" fill="#E8F2FF" stroke="#C7DCF5"/>
  <text x="392" y="583" fill="#24466E" font-family="Inter, Arial, sans-serif" font-size="18" font-weight="900">OR-Tools Logic</text>
  <rect x="612" y="552" width="256" height="48" rx="24" fill="#E8F2FF" stroke="#C7DCF5"/>
  <text x="642" y="583" fill="#24466E" font-family="Inter, Arial, sans-serif" font-size="18" font-weight="900">Unresolved Review</text>
</svg>
